<svg version="1.1" xmlns="http://www.w3.org/2000/svg" xmlns:xlink="http://www.w3.org/1999/xlink">
  <g id="layer2" inkscape:label="bg" inkscape:groupmode="layer">
    <path id="path3612" style="stroke-linejoin:round;stroke:#000000;stroke-linecap:round;stroke-width:6;fill:none"
      d="m15.454 21.608l4.879 25.876c-3.778 6.362-5.924 13.63-5.924 21.346 0 25.017 22.513 45.31 50.271 45.31s50.32-20.293 50.31-45.31c0-7.475-2.05-14.519-5.61-20.736l4.87-25.832-20.557 9.54c-8.196-5.225-18.217-8.321-29.013-8.321-10.481 0-20.213 2.891-28.272 7.842l-20.954-9.715z" />
    <path id="path3478"
      style="stroke-linejoin:round;stroke:#000000;stroke-linecap:round;stroke-width:3.9782;fill:#b3b3b3"
      d="m15.454 21.608l4.879 25.876c-3.778 6.362-5.924 13.63-5.924 21.346 0 25.017 22.513 45.31 50.271 45.31s50.32-20.293 50.31-45.31c0-7.475-2.05-14.519-5.61-20.736l4.87-25.832-20.557 9.54c-8.196-5.225-18.217-8.321-29.013-8.321-10.481 0-20.213 2.891-28.272 7.842l-20.954-9.715z" />
    <path id="path3590" style="fill:#ff8080"
      d="m60.498 78.37c-8.147 0.571-1.514 9.578 1.699 12.72 5.437 3.106 8.597-5.607 9.802-9.583-1.237-4.861-7.897-2.616-11.501-3.137z" />
    <g id="g3518" transform="matrix(1.9388 .87230 -.87230 1.9388 -79.232 -85.902)">
      <path id="path3183" sodipodi:rx="4" sodipodi:ry="4" style="fill:#000000" sodipodi:type="arc"
        d="m76 48a4 4 0 1 1 -8 0 4 4 0 1 1 8 0z" transform="translate(10.649 -9.4991)" sodipodi:cy="48"
        sodipodi:cx="72" />
      <path id="path3185" sodipodi:rx="4" sodipodi:ry="4" style="fill:#ffffff" sodipodi:type="arc"
        d="m76 48a4 4 0 1 1 -8 0 4 4 0 1 1 8 0z" transform="matrix(.39610 0 0 .39610 55.121 18.835)" sodipodi:cy="48"
        sodipodi:cx="72" />
      <path id="path3195" sodipodi:rx="4" sodipodi:ry="4" style="fill:#000000" sodipodi:type="arc"
        d="m76 48a4 4 0 1 1 -8 0 4 4 0 1 1 8 0z" transform="translate(25.61 -16.267)" sodipodi:cy="48"
        sodipodi:cx="72" />
      <path id="path3197" sodipodi:rx="4" sodipodi:ry="4" style="fill:#ffffff" sodipodi:type="arc"
        d="m76 48a4 4 0 1 1 -8 0 4 4 0 1 1 8 0z" transform="matrix(.39610 0 0 .39610 70.082 12.067)" sodipodi:cy="48"
        sodipodi:cx="72" />
    </g>
    <path id="path3588" sodipodi:nodetypes="csccsc"
      style="stroke-linejoin:round;stroke:#000000;stroke-linecap:round;stroke-width:2.788;fill:none"
      d="m41.227 86.168c0.72 5.451 3.96 11.035 11.152 11.152 9.56 0.158 17.384-10.258 19.683-17.547-5.259-0.761-10.518-0.72-15.776-0.234 2.299 6.938 10.416 17.652 18.397 17.781 7.657 0.124 10.288-4.91 11.152-11.152" />
  </g>
</svg>