<svg id="main-svg" width="400" height="400" viewBox="0 0 991 696" fill="none" xmlns="http://www.w3.org/2000/svg">
    <rect id="rect" width="991" height="696" fill="#E5E5E5" />
    <g id="undraw_review_fkgn 1">
        <g clip-path="url(#clip0)">
            <g id="lampione">
                <path id="Vector"
                    d="M155 695.365C240.604 695.365 310 689.992 310 683.365C310 676.737 240.604 671.365 155 671.365C69.3959 671.365 0 676.737 0 683.365C0 689.992 69.3959 695.365 155 695.365Z"
                    fill="#6C63FF" />
                <path id="Vector_2" opacity="0.1"
                    d="M124.258 28.3315L124.125 27.5961L111.553 20.9371H109.58L108.825 19.4908H82.9147L76.9062 20.9371H54.7772L48.7822 27.9332L48.7208 28.3621C48.3327 30.8644 39.6617 89.7028 62.5394 108.424L72.0785 112.856H78.2472L77.0414 110.449L82.4041 112.856H99.7666L100.075 112.393L110.378 108.536L110.644 108.23C111.573 107.127 133.47 80.5211 124.258 28.3315Z"
                    fill="#6C63FF" />
                <path id="Vector_3" d="M93.1279 86.8125H82.9147V113.367H93.1279V86.8125Z" fill="#E6E6E6" />
                <path id="Vector_4" d="M96.7026 147.581H78.3188V658.243H96.7026V147.581Z" fill="#3F3D56" />
                <path id="Vector_5" d="M101.299 138.9H73.7228V156.263H101.299V138.9Z" fill="#3F3D56" />
                <path id="Vector_6"
                    d="M63.51 107.239L80.872 125.623L73.723 138.9L88.021 141.964L101.299 138.9L93.128 124.602L109.469 107.239H63.51Z"
                    fill="#3F3D56" />
                <path id="Vector_7"
                    d="M50.2324 28.597L42.0618 20.4265L48.1897 14.2985H125.81L131.938 21.4478L122.746 28.597C122.746 28.597 73.7228 26.5544 50.2324 28.597Z"
                    fill="#3F3D56" />
                <path id="Vector_8"
                    d="M124.258 28.3315L124.125 27.5961L111.553 20.9371L105.813 17.8935L73.59 15.8203L55.5227 20.0689L54.7772 20.9371L48.7822 27.9331L48.7208 28.3621C48.3327 30.8643 39.6617 89.7028 62.5394 108.424L72.0785 112.856L80.1061 116.584L78.2472 112.856L75.1935 106.759C71.9969 88.1504 64.97 39.2596 69.4538 29.0464L87.9805 23.0716L104.424 29.1792C105.557 36.5226 112.891 88.0075 100.042 106.361L99.7666 106.759V112.509L110.378 108.536L110.644 108.23C111.573 107.127 133.47 80.5211 124.258 28.3315ZM108.53 105.952L102.831 108.097V107.709C116.925 86.6798 107.713 30.2107 107.314 27.8004L107.171 26.9221L91.0546 20.9371L88.0622 19.8238L84.61 20.9371L67.3293 26.5135L67.0331 27.0343C60.4661 38.8102 71.7313 104.696 72.2112 107.494L72.2522 107.719L73.4675 110.15L64.3267 105.932C43.9512 88.9674 50.937 34.6432 51.6826 29.2608L57.1978 22.8265L65.2253 20.9371L73.8556 18.9046L88.0622 19.8238L104.955 20.9166L104.996 20.9371L121.368 29.5979C129.477 76.9363 110.868 102.929 108.53 105.952H108.53Z"
                    fill="#3F3D56" />
                <path id="Vector_9"
                    d="M88.0213 28.5971C103.251 28.5971 115.597 22.1954 115.597 14.2985C115.597 6.40167 103.251 0 88.0213 0C72.7917 0 60.4456 6.40167 60.4456 14.2985C60.4456 22.1954 72.7917 28.5971 88.0213 28.5971Z"
                    fill="#3F3D56" />
                <path id="Vector_10"
                    d="M73.7228 632.199L57.3816 684.287C57.3816 684.287 82.9147 698.585 117.64 684.287L101.299 632.199H73.7228Z"
                    fill="#3F3D56" />
                <g id="lightBulb">
                    <path id="Vector_11"
                        d="M88.0213 89.8765C92.5338 89.8765 96.1919 86.2184 96.1919 81.7059C96.1919 77.1934 92.5338 73.5353 88.0213 73.5353C83.5088 73.5353 79.8507 77.1934 79.8507 81.7059C79.8507 86.2184 83.5088 89.8765 88.0213 89.8765Z"
                        fill="#6C63FF" />
                </g>
            </g>
            <path id="Vector_12"
                d="M389.438 383.228C393.754 399.181 408.537 409.062 408.537 409.062C408.537 409.062 416.322 393.076 412.006 377.123C407.69 361.169 392.908 351.288 392.908 351.288C392.908 351.288 385.122 367.274 389.438 383.228Z"
                fill="#6C63FF" />
            <path id="Vector_13"
                d="M395.78 379.799C407.622 391.327 409.069 409.049 409.069 409.049C409.069 409.049 391.315 408.079 379.472 396.551C367.63 385.023 366.183 367.301 366.183 367.301C366.183 367.301 383.937 368.271 395.78 379.799Z"
                fill="#E6E6E6" />
            <g id="background">
                <path id="Vector_14"
                    d="M980.417 380.066L567.368 497.189L944.222 284.846C927.041 253.371 905.473 224.497 880.165 199.092L514.532 400.322L820.631 150.375C776.728 121.333 727.201 101.863 675.274 93.2325L505.726 376.305L618.021 88.1519C616.349 88.1301 614.677 88.1051 613 88.1051C404.755 88.1051 235.938 256.921 235.938 465.167C235.829 534.044 254.676 601.623 290.416 660.502H935.584C986.385 576.395 1002.46 475.82 980.417 380.066V380.066Z"
                    fill="#F2F2F2" />
            </g>
            <path id="Vector_15"
                d="M948 625.294C948 593.127 931.678 567.05 911.543 567.05C898.888 567.05 887.743 577.356 881.206 592.996C878.998 592.079 876.631 591.604 874.239 591.598C868.145 591.598 862.51 594.721 857.915 600.006C852.022 580.505 839.528 567.05 825.065 567.05C811.543 567.05 799.749 578.821 793.456 596.29C789.959 593.339 785.553 591.682 780.978 591.598C765.526 591.598 753 611.61 753 636.296C752.936 644.525 754.432 652.692 757.408 660.365H940.648C945.261 650.608 948 638.463 948 625.294Z"
                fill="#6C63FF" />
            <g id="plant">
                <path id="Vector_16"
                    d="M579.377 233.806V233.806C579.377 196.438 594.221 160.6 620.645 134.176C647.068 107.753 682.906 92.9084 720.274 92.9084"
                    stroke="#3F3D56" stroke-width="2" stroke-miterlimit="10" />
                <path id="Vector_17"
                    d="M630.642 252.247C619.356 293.967 580.699 319.805 580.699 319.805C580.699 319.805 560.341 278.002 571.627 236.283C582.913 194.563 621.569 168.725 621.569 168.725C621.569 168.725 641.928 210.528 630.642 252.247Z"
                    fill="#6C63FF" />
                <path id="Vector_18"
                    d="M527.972 252.247C539.258 293.967 577.915 319.805 577.915 319.805C577.915 319.805 598.273 278.002 586.987 236.283C575.701 194.563 537.045 168.725 537.045 168.725C537.045 168.725 516.686 210.528 527.972 252.247Z"
                    fill="#6C63FF" />
                <path id="Vector_19"
                    d="M544.556 243.281C575.524 273.428 579.307 319.771 579.307 319.771C579.307 319.771 532.879 317.236 501.911 287.089C470.942 256.942 467.16 210.6 467.16 210.6C467.16 210.6 513.587 213.135 544.556 243.281Z"
                    fill="#3F3D56" />
                <path id="Vector_20"
                    d="M614.058 243.281C583.09 273.428 579.307 319.771 579.307 319.771C579.307 319.771 625.735 317.236 656.703 287.089C687.672 256.942 691.454 210.6 691.454 210.6C691.454 210.6 645.027 213.135 614.058 243.281Z"
                    fill="#3F3D56" />
                <path id="Vector_21"
                    d="M697.453 123.045C702.455 104.555 719.588 93.1038 719.588 93.1038C719.588 93.1038 728.611 111.631 723.609 130.121C718.607 148.611 701.474 160.063 701.474 160.063C701.474 160.063 692.451 141.536 697.453 123.045Z"
                    fill="#6C63FF" />
                <path id="plantRound"
                    d="M720.274 176.967C725.58 176.967 729.881 172.666 729.881 167.36C729.881 162.055 725.58 157.753 720.274 157.753C714.969 157.753 710.668 162.055 710.668 167.36C710.668 172.666 714.969 176.967 720.274 176.967Z"
                    fill="#6C63FF" />
                <path id="Vector_22"
                    d="M742.957 123.045C737.955 104.555 720.822 93.1038 720.822 93.1038C720.822 93.1038 711.799 111.631 716.801 130.121C721.803 148.611 738.936 160.063 738.936 160.063C738.936 160.063 747.959 141.536 742.957 123.045Z"
                    fill="#6C63FF" />
                <path id="Vector_23"
                    d="M735.607 127.019C721.881 113.658 720.205 93.1188 720.205 93.1188C720.205 93.1188 740.782 94.2423 754.507 107.603C768.232 120.965 769.909 141.504 769.909 141.504C769.909 141.504 749.332 140.38 735.607 127.019Z"
                    fill="#3F3D56" />
                <path id="Vector_24"
                    d="M704.803 127.019C718.528 113.658 720.205 93.1188 720.205 93.1188C720.205 93.1188 699.628 94.2423 685.903 107.603C672.177 120.965 670.501 141.504 670.501 141.504C670.501 141.504 691.078 140.38 704.803 127.019Z"
                    fill="#3F3D56" />
            </g>
            <path id="Vector_25"
                d="M870.779 503.594H853.967V410.465C853.96 407.92 852.945 405.48 851.145 403.68C849.345 401.88 846.906 400.866 844.361 400.858H815.541V318.891C815.533 316.345 814.519 313.906 812.719 312.106C810.919 310.306 808.48 309.291 805.934 309.284H357.623C355.077 309.291 352.638 310.306 350.838 312.106C349.038 313.906 348.023 316.345 348.016 318.891V400.858H319.196C316.65 400.866 314.211 401.88 312.411 403.68C310.611 405.48 309.597 407.92 309.589 410.465V503.594H292.778C290.232 503.601 287.793 504.615 285.993 506.415C284.193 508.215 283.178 510.655 283.171 513.2V650.896C283.179 653.441 284.193 655.88 285.993 657.68C287.793 659.48 290.232 660.495 292.778 660.502H870.779C873.325 660.495 875.764 659.48 877.564 657.68C879.364 655.88 880.378 653.441 880.386 650.896V513.2C880.378 510.655 879.364 508.216 877.564 506.416C875.764 504.616 873.325 503.601 870.779 503.594V503.594Z"
                fill="#3F3D56" />
            <path id="Vector_26"
                d="M786.776 474.482C777.948 488.454 780.674 506.024 780.674 506.024C780.674 506.024 797.712 500.941 806.54 486.969C815.368 472.997 812.642 455.427 812.642 455.427C812.642 455.427 795.604 460.51 786.776 474.482Z"
                fill="#6C63FF" />
            <path id="Vector_27"
                d="M793.591 476.832C793.115 493.352 781.044 506.407 781.044 506.407C781.044 506.407 769.745 492.678 770.222 476.158C770.699 459.638 782.769 446.582 782.769 446.582C782.769 446.582 794.068 460.312 793.591 476.832Z"
                fill="#E6E6E6" />
            <path id="Vector_28" d="M853.967 503.594H309.589V513.2H853.967V503.594Z" fill="#E6E6E6" />
            <path id="Vector_29" d="M815.541 401.122H348.016V410.729H815.541V401.122Z" fill="#E6E6E6" />
            <g id="message">
                <path id="Vector_30"
                    d="M412.411 390.687L665.405 318.833L703.108 451.582L684.831 456.773L698.765 505.833L635.771 470.707L450.114 523.437L412.411 390.687Z"
                    fill="#6C63FF" />
                <path id="Vector_31"
                    d="M565.83 449.549L560.222 446.79C540.236 436.738 527.087 430.264 523.745 418.496C523.07 416.268 522.848 413.927 523.094 411.613C523.339 409.298 524.047 407.056 525.174 405.019C526.302 402.982 527.827 401.193 529.658 399.756C531.49 398.319 533.591 397.264 535.837 396.654C538.484 395.918 541.259 395.766 543.97 396.21C546.681 396.653 549.263 397.682 551.537 399.224C552.661 396.717 554.316 394.485 556.39 392.682C558.463 390.88 560.903 389.55 563.542 388.786C565.774 388.124 568.115 387.917 570.429 388.176C572.742 388.436 574.98 389.157 577.01 390.297C579.039 391.437 580.82 392.972 582.245 394.813C583.671 396.653 584.713 398.76 585.31 401.01C588.652 412.778 580.869 425.197 569.15 444.254L565.83 449.549Z"
                    fill="white" />
            </g>
            <path id="Vector_32"
                d="M116.826 318.145C116.826 318.145 110.335 337.618 113.941 341.945C117.547 346.272 92.3047 328.963 92.3047 328.963L106.008 313.096L116.826 318.145Z"
                fill="#A0616A" />
            <path id="Vector_33" d="M227.894 537.395L211.306 550.377L201.93 535.231L218.518 523.692L227.894 537.395Z"
                fill="#A0616A" />
            <path id="Vector_34"
                d="M204.454 635.12L208.781 656.035L221.042 672.623C221.042 672.623 254.218 682.72 231.86 687.769C209.503 692.817 204.454 684.163 204.454 684.163L188.587 670.46V689.211H178.49L176.327 662.526C176.327 662.526 174.884 654.593 181.375 645.938L182.818 632.956L204.454 635.12Z"
                fill="#2F2E41" />
            <path id="Vector_35"
                d="M120.793 376.203L126.563 409.379C126.563 409.379 187.866 402.888 192.193 415.149C196.521 427.409 197.963 431.015 197.963 431.015L185.702 435.343L179.933 424.524C178.175 423.902 176.309 423.645 174.449 423.769C172.589 423.893 170.774 424.396 169.114 425.246C163.345 428.13 112.859 435.343 109.253 425.967C105.647 416.591 95.5502 381.973 95.5502 381.973L110.696 369.712L120.793 376.203Z"
                fill="#A0616A" />
            <path id="Vector_36" opacity="0.1"
                d="M120.793 376.203L126.563 409.379C126.563 409.379 187.866 402.888 192.193 415.149C196.521 427.409 197.963 431.015 197.963 431.015L185.702 435.343L179.933 424.524C178.175 423.902 176.309 423.645 174.449 423.769C172.589 423.893 170.774 424.396 169.114 425.246C163.345 428.13 112.859 435.343 109.253 425.967C105.647 416.591 95.5502 381.973 95.5502 381.973L110.696 369.712L120.793 376.203Z"
                fill="black" />
            <path id="Vector_37"
                d="M154.69 472.125L159.739 489.434L172.72 555.786C172.72 555.786 174.163 604.829 176.327 610.599C178.49 616.368 178.49 617.089 176.327 619.253C174.163 621.417 169.836 628.629 176.327 632.956C182.818 637.284 205.896 642.332 206.618 637.284C207.339 632.235 207.339 624.302 206.618 620.696C205.896 617.089 208.781 560.835 208.781 560.835L200.127 475.01L170.557 461.307L154.69 472.125Z"
                fill="#2F2E41" />
            <path id="Vector_38" opacity="0.1"
                d="M154.69 472.125L159.739 489.434L172.72 555.786C172.72 555.786 174.163 604.829 176.327 610.599C178.49 616.368 178.49 617.089 176.327 619.253C174.163 621.417 169.836 628.629 176.327 632.956C182.818 637.284 205.896 642.332 206.618 637.284C207.339 632.235 207.339 624.302 206.618 620.696C205.896 617.089 208.781 560.835 208.781 560.835L200.127 475.01L170.557 461.307L154.69 472.125Z"
                fill="black" />
            <path id="Vector_39"
                d="M185.702 404.33L201.569 434.621C201.569 434.621 292.443 475.01 284.509 491.598C276.576 508.186 232.582 539.198 232.582 539.198C232.582 539.198 230.418 551.459 223.927 547.853C217.436 544.247 201.569 525.495 203.012 523.331C204.454 521.168 209.503 516.119 211.666 516.84C213.83 517.561 239.072 498.089 239.072 498.089L195.799 487.27C195.799 487.27 143.872 485.828 140.987 461.306C138.102 436.785 140.987 432.458 140.987 432.458L137.381 424.524L166.951 406.494L185.702 404.33Z"
                fill="#2F2E41" />
            <path id="Vector_40"
                d="M208.06 524.052L192.915 537.756C192.915 537.756 179.933 531.986 171.999 534.149C164.066 536.313 150.363 537.756 150.363 537.756L152.526 550.016L170.927 546.621L156.132 567.326C156.132 567.326 156.132 599.78 165.508 599.78C174.884 599.78 171.999 580.307 171.999 580.307L200.848 557.95C200.848 557.95 215.272 552.18 216.715 552.18C218.157 552.18 208.06 524.052 208.06 524.052Z"
                fill="#2F2E41" />
            <path id="Vector_41"
                d="M89.7805 318.505C89.7805 318.505 101.32 315.621 104.926 318.505C108.532 321.39 109.253 327.881 114.302 328.602C119.35 329.324 123.678 329.324 124.399 330.045C125.12 330.766 141.708 350.96 141.708 350.96C141.708 350.96 151.805 356.73 153.969 364.663C156.132 372.597 177.769 399.282 180.654 402.167C183.539 405.051 161.902 419.476 154.69 424.524C147.478 429.573 126.563 431.737 120.072 420.197C113.581 408.658 78.241 333.651 89.7805 318.505Z"
                fill="#575A89" />
            <path id="Vector_42"
                d="M117.187 365.385L122.956 398.561C122.956 398.561 184.26 392.07 188.587 404.33C192.915 416.591 194.357 420.197 194.357 420.197L182.096 424.524L176.327 413.706C174.569 413.084 172.703 412.827 170.843 412.951C168.983 413.075 167.168 413.577 165.508 414.427C159.739 417.312 109.253 424.524 105.647 415.149C102.041 405.773 91.9441 371.154 91.9441 371.154L107.09 358.894L117.187 365.385Z"
                fill="#A0616A" />
            <path id="Vector_43"
                d="M103.404 321.54C103.404 321.54 120.793 358.172 119.35 368.269C117.908 378.366 112.859 371.154 112.859 371.154C112.859 371.154 106.368 361.057 103.484 366.827C100.599 372.597 96.9925 380.53 94.1077 379.809C91.2229 379.088 75.356 325.718 84.0107 320.669C92.6654 315.621 103.404 321.54 103.404 321.54Z"
                fill="#575A89" />
            <g id="girlHead">
                <path id="Vector_44"
                    d="M113.941 323.915C127.484 323.915 138.463 312.936 138.463 299.393C138.463 285.85 127.484 274.872 113.941 274.872C100.398 274.872 89.4198 285.85 89.4198 299.393C89.4198 312.936 100.398 323.915 113.941 323.915Z"
                    fill="#A0616A" />
                <path id="Vector_45"
                    d="M66.9439 275.478C84.8276 275.478 99.3252 260.98 99.3252 243.096C99.3252 225.213 84.8276 210.715 66.9439 210.715C49.0602 210.715 34.5626 225.213 34.5626 243.096C34.5626 260.98 49.0602 275.478 66.9439 275.478Z"
                    fill="#2F2E41" />
                <path id="Vector_46"
                    d="M39.0132 269.91C43.2044 272.939 48.0601 274.921 53.174 275.689C58.2879 276.457 63.5114 275.989 68.4073 274.324C73.3033 272.659 77.7294 269.846 81.3153 266.12C84.9012 262.394 87.5426 257.864 89.0186 252.907C88.4601 257.349 86.9868 261.626 84.6917 265.47C82.3967 269.313 79.3297 272.639 75.6844 275.237C72.0392 277.835 67.8948 279.65 63.513 280.565C59.1312 281.481 54.6071 281.479 50.2264 280.558C45.8456 279.637 41.7034 277.817 38.0613 275.215C34.4191 272.612 31.3561 269.283 29.0656 265.437C26.7751 261.591 25.3069 257.311 24.7536 252.869C24.2004 248.427 24.5742 243.918 25.8513 239.628C25.126 245.392 25.9652 251.245 28.281 256.573C30.5968 261.902 34.3039 266.508 39.0132 269.91V269.91Z"
                    fill="#2F2E41" />
                <path id="Vector_47"
                    d="M93.3886 314.875C106.503 314.875 117.135 304.243 117.135 291.129C117.135 278.014 106.503 267.382 93.3886 267.382C80.2739 267.382 69.6423 278.014 69.6423 291.129C69.6423 304.243 80.2739 314.875 93.3886 314.875Z"
                    fill="#2F2E41" />
                <path id="Vector_48"
                    d="M113.357 298.684C124.982 298.684 134.405 291.315 134.405 282.224C134.405 273.133 124.982 265.763 113.357 265.763C101.733 265.763 92.3093 273.133 92.3093 282.224C92.3093 291.315 101.733 298.684 113.357 298.684Z"
                    fill="#2F2E41" />
                <path id="Vector_49"
                    d="M114.302 310.211C116.891 310.211 118.99 306.498 118.99 301.917C118.99 297.337 116.891 293.623 114.302 293.623C111.713 293.623 109.614 297.337 109.614 301.917C109.614 306.498 111.713 310.211 114.302 310.211Z"
                    fill="#A0616A" />
                <path id="Vector_50"
                    d="M102.024 318.113C119.907 318.113 134.405 303.616 134.405 285.732C134.405 267.848 119.907 253.35 102.024 253.35C84.14 253.35 69.6423 267.848 69.6423 285.732C69.6423 303.616 84.14 318.113 102.024 318.113Z"
                    fill="#2F2E41" />
            </g>
            <path id="Vector_51"
                d="M178.652 424.209C178.652 424.209 191.42 416.884 193.79 418.721C196.16 420.558 197.213 426.305 197.213 426.305L182.457 432.097L178.13 424.164L178.652 424.209Z"
                fill="#2F2E41" />
        </g>
    </g>
    <defs>
        <clipPath id="clip0">
            <rect width="990.062" height="695.365" fill="white" />
        </clipPath>
    </defs>
</svg>